<svg width="558" height="96" viewBox="0 0 558 96" fill="none" xmlns="http://www.w3.org/2000/svg">
<path d="M16.4487 95.3319H79.4869C88.399 95.3319 95.6907 88.0742 95.6907 79.2037V16.46C95.6907 7.58954 88.399 0.331879 79.4869 0.331879H16.4487C7.5366 0.331879 0.244873 7.58954 0.244873 16.46V79.2064C0.244873 88.0769 7.5366 95.3319 16.4487 95.3319Z" fill="url(#paint0_linear_874_1466)"/>
<path d="M83.514 32.8869C81.5695 28.3129 78.7883 24.2068 75.2474 20.6824C71.7038 17.1554 67.5784 14.3872 62.9856 12.4544C58.228 10.4503 53.1756 9.43503 47.9691 9.43503C42.7627 9.43503 37.7103 10.4503 32.9527 12.4544C28.3572 14.3898 24.2319 17.158 20.6909 20.6824C17.1473 24.2095 14.3661 28.3155 12.4243 32.8869C10.4108 37.6222 9.39075 42.6511 9.39075 47.8332C9.39075 53.0154 10.4108 58.0442 12.4243 62.7795C14.3661 67.3509 17.15 71.4596 20.6909 74.984C24.2345 78.511 28.3598 81.2793 32.9527 83.212C37.7103 85.2161 42.7627 86.2314 47.9691 86.2314C53.1756 86.2314 58.228 85.2161 62.9856 83.212C67.5784 81.2793 71.7064 78.5084 75.2474 74.984C78.7883 71.4596 81.5722 67.3509 83.514 62.7795C85.5275 58.0442 86.5475 53.0154 86.5475 47.8332C86.5449 42.6511 85.5248 37.6222 83.514 32.8869ZM82.7171 47.8332C82.7171 52.5024 81.798 57.0342 79.9863 61.2962C78.2358 65.4155 75.7308 69.1144 72.5379 72.2925C69.3449 75.4705 65.6287 77.9637 61.49 79.7061C57.208 81.5093 52.655 82.4241 47.9638 82.4241C43.2727 82.4241 38.7197 81.5093 34.4376 79.7061C30.299 77.9637 26.5827 75.4705 23.3898 72.2925C20.1968 69.1144 17.6919 65.4155 15.9413 61.2962C14.1297 57.0342 13.2106 52.5024 13.2106 47.8332C13.2106 43.164 14.1297 38.6322 15.9413 34.3702C17.6919 30.2509 20.1968 26.552 23.3898 23.374C26.5827 20.1959 30.299 17.7027 34.4376 15.9603C38.7197 14.1571 43.2727 13.2423 47.9638 13.2423C52.655 13.2423 57.208 14.1571 61.49 15.9603C65.6287 17.7027 69.3449 20.1959 72.5379 23.374C75.7308 26.552 78.2358 30.2509 79.9863 34.3702C81.8006 38.6322 82.7171 43.164 82.7171 47.8332Z" fill="white"/>
<path d="M69.7168 26.1263C69.2067 26.1263 68.7259 26.3246 68.3647 26.6842C67.6395 27.4086 67.6103 28.5614 68.3036 29.3123C72.9628 34.3702 75.5289 40.9483 75.5289 47.8305C75.5289 54.7128 72.9974 61.201 68.3992 66.2457C68.1867 66.481 68.192 66.8406 68.4151 67.0653C69.1802 67.8427 69.7911 68.4746 70.2321 68.9425C70.3463 69.0642 70.5057 69.1329 70.6704 69.1329H70.673C70.8404 69.1329 70.9998 69.0615 71.1113 68.9399C76.4294 63.1734 79.3594 55.6778 79.3594 47.8332C79.3594 39.9886 76.44 32.5115 71.1352 26.7503C70.7713 26.3537 70.2533 26.1263 69.7168 26.1263Z" fill="white"/>
<path d="M20.4651 47.8332C20.4651 40.9351 23.0418 34.3464 27.7223 29.2806C28.3944 28.5535 28.3864 27.4272 27.7037 26.7159L27.6532 26.6657C27.2946 26.2929 26.8138 26.0867 26.2958 26.0867C25.7779 26.0867 25.2625 26.3088 24.9066 26.6948C19.5726 32.4639 16.6346 39.9701 16.6346 47.8306C16.6346 55.691 19.562 63.1655 24.8747 68.9293C24.9863 69.051 25.143 69.1197 25.3103 69.1223H25.3183C25.4803 69.1223 25.6371 69.0562 25.7486 68.9399L27.5762 67.0574C27.7967 66.83 27.802 66.4731 27.5895 66.2404C22.9966 61.2037 20.4651 54.6625 20.4651 47.8332Z" fill="white"/>
<path d="M66.1998 31.6892C65.8385 31.2847 65.3178 31.052 64.7706 31.052C64.258 31.052 63.7771 31.2503 63.4159 31.6099C62.6987 32.3237 62.6668 33.4712 63.3415 34.2247C66.6938 37.9659 68.54 42.7991 68.54 47.8332C68.54 52.8673 66.7337 57.592 63.4531 61.3147C63.2432 61.5527 63.2565 61.9096 63.4823 62.1317C64.1251 62.7689 64.7494 63.3876 65.3444 63.9798C65.456 64.0909 65.61 64.1543 65.7694 64.1543H65.788C65.9527 64.149 66.1094 64.0777 66.2183 63.9534C70.187 59.5168 72.3705 53.79 72.3705 47.8305C72.3678 41.8631 70.1763 36.1284 66.1998 31.6892Z" fill="white"/>
<path d="M27.454 47.8332C27.454 42.7965 29.3029 37.958 32.6632 34.2142C33.3485 33.4501 33.3087 32.292 32.5729 31.5782C32.2142 31.2292 31.7388 31.0388 31.2367 31.0388C30.6922 31.0388 30.1715 31.2715 29.8076 31.676C25.823 36.1178 23.6262 41.8552 23.6262 47.8332C23.6262 53.8112 25.8098 59.5142 29.7731 63.9508C29.8873 64.0777 30.0546 64.1517 30.2246 64.1517C30.384 64.1517 30.5407 64.0856 30.655 63.9746L32.5144 62.1291C32.7376 61.907 32.7508 61.55 32.541 61.3121C29.263 57.592 27.454 52.8038 27.454 47.8332Z" fill="white"/>
<path d="M59.8032 36.1205C56.6475 32.961 52.4584 31.2159 48.009 31.2027H47.9665C38.7542 31.2027 31.2579 38.664 31.2579 47.8332C31.2579 51.4237 32.3949 54.8476 34.5465 57.7295C34.8998 58.2028 35.4683 58.4884 36.066 58.4884C36.4272 58.4884 36.7779 58.3852 37.0833 58.1922L37.1046 58.179C37.1896 58.1261 37.2693 58.0653 37.349 57.9913C38.9003 56.7592 40.0797 53.909 39.2217 51.0298C38.4461 48.4255 36.831 46.5403 35.1867 46.2416C35.5586 43.2671 36.9691 40.5227 39.1978 38.4551C41.5912 36.2368 44.7045 35.0153 47.9691 35.0153H48.0754C51.3082 35.0418 54.3949 36.2765 56.767 38.4895C58.9798 40.5544 60.377 43.2856 60.7489 46.2389C59.102 46.5324 57.4842 48.4202 56.7059 51.0298C56.1906 52.7615 56.4615 54.2739 56.7776 55.2363C57.1708 56.4261 57.8535 57.4519 58.653 58.0521C58.6583 58.0574 58.6663 58.0627 58.6716 58.0653C58.6769 58.0653 58.6849 58.0759 58.6876 58.0785L58.7115 58.0944L58.7221 58.1023C58.754 58.1261 58.7832 58.1473 58.8177 58.1684L58.8549 58.1922C58.8974 58.2213 58.9452 58.2478 58.9984 58.2742C59.0063 58.2795 59.0196 58.2848 59.0329 58.2927C59.0329 58.2927 59.0382 58.2927 59.0435 58.298C59.0541 58.3033 59.0674 58.3086 59.078 58.3139C59.3224 58.4275 59.5881 58.4857 59.8643 58.4857C60.4647 58.4857 61.0384 58.1975 61.3971 57.7163C63.5301 54.8529 64.6644 51.4528 64.675 47.8887C64.6883 43.4575 62.959 39.28 59.8032 36.1205Z" fill="white"/>
<path d="M119.024 21.7532H132.346L126.794 60.8758H148.109L146.334 73.9158H111.693L119.022 21.7532H119.024Z" fill="white"/>
<path d="M195.852 73.9105H181.64L179.642 63.4484H165.654L160.99 73.9105H146.778L172.385 21.7532H184.451L195.854 73.9105H195.852ZM178.16 51.7357L176.606 36.488H176.086L170.313 51.7357H178.16Z" fill="white"/>
<path d="M231.901 21.6765H246.113L219.91 73.9105H207.771L196.224 21.6765H210.435L215.1 47.1643L215.838 59.6173H215.987L219.985 47.241L231.898 21.6765H231.901Z" fill="white"/>
<path d="M244.633 38.9178C246.408 26.9089 257.955 21.0156 268.838 21.0156C279.721 21.0156 289.786 26.983 288.083 38.9178L285.493 56.7486C283.791 68.6835 272.615 74.6509 261.217 74.6509C249.818 74.6509 240.346 68.6835 242.048 56.7486L244.636 38.9178H244.633ZM255.293 56.7434C254.772 60.4978 258.699 62.4173 262.696 62.4173C266.989 62.4173 271.654 60.5031 272.246 56.3732L274.836 38.9125C275.428 35.01 271.725 33.0165 267.433 33.0165C263.14 33.0165 258.475 35.0047 257.883 38.9125L255.293 56.7434Z" fill="white"/>
<path d="M334.049 21.7532L335.752 26.1739L308.07 61.907L329.461 61.7589L327.759 73.9158H288.973L287.199 69.0536L314.732 33.9868H293.712L295.415 21.7585H334.049V21.7532Z" fill="white"/>
<path d="M342.042 57.4096C344.337 60.7225 348.704 62.4173 352.625 62.4173C356.179 62.4173 359.287 61.164 359.803 58.4381C360.395 55.1966 355.805 53.7953 351.584 53.2057C343.365 51.8811 335.967 45.3214 337.816 35.4515C339.813 24.77 349.286 21.0103 358.91 21.0103C365.277 21.0103 371.196 22.7764 375.714 29.3361L366.093 35.9671C363.869 33.4606 360.392 32.2841 357.359 32.2127C354.03 32.136 351.215 33.3893 350.92 36.0438C350.548 39.0632 353.215 40.3931 357.21 41.2762C366.316 42.971 375.196 46.4319 372.755 59.4005C370.832 69.5692 361.946 74.6482 350.625 74.6482C344.335 74.6482 336.559 71.4807 332.564 65.2198L342.039 57.407L342.042 57.4096Z" fill="url(#paint1_linear_874_1466)"/>
<path d="M419.98 73.9105H405.768L403.771 63.4484H389.782L385.118 73.9105H370.906L396.513 21.7532H408.579L419.982 73.9105H419.98ZM402.288 51.7357L400.734 36.488H400.214L394.442 51.7357H402.288Z" fill="url(#paint2_linear_874_1466)"/>
<path d="M430.717 21.7532H444.038L438.487 60.8758H459.801L458.027 73.9158H423.385L430.714 21.7532H430.717Z" fill="url(#paint3_linear_874_1466)"/>
<path d="M470.905 57.4096C473.2 60.7225 477.567 62.4173 481.488 62.4173C485.042 62.4173 488.15 61.164 488.666 58.4381C489.258 55.1966 484.668 53.7953 480.447 53.2057C472.228 51.8811 464.83 45.3214 466.679 35.4515C468.676 24.77 478.149 21.0103 487.773 21.0103C494.14 21.0103 500.059 22.7764 504.577 29.3361L494.956 35.9671C492.732 33.4606 489.255 32.2841 486.222 32.2127C482.893 32.136 480.077 33.3893 479.783 36.0438C479.411 39.0632 482.078 40.3931 486.073 41.2762C495.179 42.971 504.059 46.4319 501.618 59.4005C499.695 69.5692 490.809 74.6482 479.488 74.6482C473.197 74.6482 465.422 71.4807 461.427 65.2198L470.902 57.407L470.905 57.4096Z" fill="url(#paint4_linear_874_1466)"/>
<path d="M548.848 73.9105H534.637L532.639 63.4484H518.651L513.986 73.9105H499.774L525.387 21.7532H537.452L548.851 73.9105H548.848ZM531.157 51.7357L529.603 36.488H529.082L523.31 51.7357H531.157Z" fill="url(#paint5_linear_874_1466)"/>
<path d="M550.514 35.1634C546.795 35.1634 543.788 32.1704 543.772 28.4715C543.761 24.8757 546.657 21.7611 550.503 21.7532C554.256 21.7506 557.25 24.7488 557.245 28.4609C557.245 32.2233 554.185 35.1607 550.514 35.1634ZM556.4 28.4609C556.427 25.267 553.773 22.5913 550.522 22.5966C547.265 22.5993 544.616 25.2247 544.614 28.4583C544.614 31.6813 547.265 34.3279 550.503 34.3279C553.847 34.3279 556.427 31.5914 556.4 28.4636V28.4609Z" fill="url(#paint6_linear_874_1466)"/>
<path d="M548.147 24.7382C548.537 24.6827 548.925 24.606 549.316 24.5769C549.796 24.5426 550.283 24.5214 550.761 24.5426C551.478 24.5769 552.147 24.7726 552.702 25.2591C553.228 25.7244 553.412 26.3193 553.356 27.0067C553.292 27.7471 552.915 28.2785 552.285 28.646C552.288 28.6619 552.285 28.6751 552.293 28.6804C552.787 29.1193 553.074 29.6771 553.223 30.3038C553.385 30.9859 553.523 31.6786 553.675 32.3872H552.373C552.323 32.0937 552.277 31.7976 552.222 31.5068C552.131 31.0308 552.007 30.5629 551.797 30.1213C551.656 29.8278 551.483 29.5555 551.212 29.3546C551.026 29.2144 550.822 29.1325 550.583 29.1325H549.414V32.3872H548.144C548.147 29.8437 548.147 27.3029 548.147 24.7409V24.7382ZM549.414 28.0088C549.919 28.0088 550.405 28.0247 550.885 28.0009C551.101 27.9903 551.321 27.9216 551.523 27.8422C551.956 27.673 552.123 27.3134 552.129 26.8719C552.139 26.4277 551.961 26.0761 551.544 25.8857C551.361 25.8037 551.164 25.735 550.968 25.7191C550.5 25.6901 550.035 25.6953 549.568 25.6821C549.432 25.6795 549.406 25.735 549.409 25.8566C549.417 26.4594 549.411 27.0649 549.411 27.6651V28.0088H549.414Z" fill="url(#paint7_linear_874_1466)"/>
<defs>
<linearGradient id="paint0_linear_874_1466" x1="-0.397967" y1="2.34393" x2="94.129" y2="92.0828" gradientUnits="userSpaceOnUse">
<stop stop-color="#FF0098"/>
<stop offset="1" stop-color="#FF0034"/>
</linearGradient>
<linearGradient id="paint1_linear_874_1466" x1="334.79" y1="42.7541" x2="553.094" y2="97.587" gradientUnits="userSpaceOnUse">
<stop stop-color="#FF0098"/>
<stop offset="1" stop-color="#FF0034"/>
</linearGradient>
<linearGradient id="paint2_linear_874_1466" x1="336.822" y1="34.6636" x2="555.126" y2="89.4965" gradientUnits="userSpaceOnUse">
<stop stop-color="#FF0098"/>
<stop offset="1" stop-color="#FF0034"/>
</linearGradient>
<linearGradient id="paint3_linear_874_1466" x1="339.407" y1="24.3681" x2="557.714" y2="79.2009" gradientUnits="userSpaceOnUse">
<stop stop-color="#FF0098"/>
<stop offset="1" stop-color="#FF0034"/>
</linearGradient>
<linearGradient id="paint4_linear_874_1466" x1="342.369" y1="12.576" x2="560.673" y2="67.4062" gradientUnits="userSpaceOnUse">
<stop stop-color="#FF0098"/>
<stop offset="1" stop-color="#FF0034"/>
</linearGradient>
<linearGradient id="paint5_linear_874_1466" x1="344.404" y1="4.48287" x2="562.708" y2="59.3157" gradientUnits="userSpaceOnUse">
<stop stop-color="#FF0098"/>
<stop offset="1" stop-color="#FF0034"/>
</linearGradient>
<linearGradient id="paint6_linear_874_1466" x1="350.858" y1="-21.2217" x2="569.163" y2="33.6087" gradientUnits="userSpaceOnUse">
<stop stop-color="#FF0098"/>
<stop offset="1" stop-color="#FF0034"/>
</linearGradient>
<linearGradient id="paint7_linear_874_1466" x1="350.807" y1="-21.0075" x2="569.11" y2="33.8245" gradientUnits="userSpaceOnUse">
<stop stop-color="#FF0098"/>
<stop offset="1" stop-color="#FF0034"/>
</linearGradient>
</defs>
</svg>
