<svg width="30" height="30" viewBox="0 0 30 30" fill="none" xmlns="http://www.w3.org/2000/svg">
<path fill-rule="evenodd" clip-rule="evenodd" d="M15.0001 2.26796C8.03634 2.26796 2.39113 7.91317 2.39113 14.8769C2.39113 21.8406 8.03634 27.4858 15.0001 27.4858C21.9638 27.4858 27.609 21.8406 27.609 14.8769C27.609 7.91317 21.9638 2.26796 15.0001 2.26796ZM0.346436 14.8769C0.346436 6.78392 6.90709 0.223267 15.0001 0.223267C23.093 0.223267 29.6537 6.78392 29.6537 14.8769C29.6537 22.9699 23.093 29.5305 15.0001 29.5305C6.90709 29.5305 0.346436 22.9699 0.346436 14.8769Z" fill="#6B6B6B"/>
<path fill-rule="evenodd" clip-rule="evenodd" d="M18.836 11.0409L13.0819 12.9589L11.1639 18.7129L16.918 16.7949L18.836 11.0409ZM19.8705 8.54071C20.7763 8.23878 21.6381 9.10052 21.3361 10.0063L18.7176 17.8618C18.6023 18.2078 18.3308 18.4793 17.9848 18.5946L10.1294 21.2131C9.22357 21.515 8.36183 20.6533 8.66376 19.7475L11.2822 11.892C11.3976 11.546 11.6691 11.2745 12.015 11.1592L19.8705 8.54071Z" fill="#6B6B6B"/>
</svg>
