<svg width="23" height="22" viewBox="0 0 23 22" fill="none" xmlns="http://www.w3.org/2000/svg">
<path d="M21.8368 8.7959H20.9731V8.7514H11.3229V13.0404H17.3827C16.4986 15.5371 14.123 17.3294 11.3229 17.3294C7.76997 17.3294 4.88937 14.4488 4.88937 10.8959C4.88937 7.343 7.76997 4.4624 11.3229 4.4624C12.9629 4.4624 14.4549 5.08109 15.591 6.09168L18.6238 3.05882C16.7088 1.27407 14.1472 0.173401 11.3229 0.173401C5.40137 0.173401 0.600372 4.9744 0.600372 10.8959C0.600372 16.8174 5.40137 21.6184 11.3229 21.6184C17.2444 21.6184 22.0454 16.8174 22.0454 10.8959C22.0454 10.177 21.9714 9.47517 21.8368 8.7959Z" fill="#FFC107"/>
<path d="M1.83669 5.90514L5.35956 8.48873C6.31279 6.12871 8.62135 4.46243 11.3229 4.46243C12.9629 4.46243 14.4549 5.08112 15.591 6.09171L18.6238 3.05885C16.7088 1.2741 14.1472 0.173431 11.3229 0.173431C7.20437 0.173431 3.6327 2.4986 1.83669 5.90514Z" fill="#FF3D00"/>
<path d="M11.3229 21.6184C14.0925 21.6184 16.6091 20.5585 18.5118 18.8349L15.1932 16.0267C14.0805 16.8729 12.7208 17.3306 11.3229 17.3294C8.53396 17.3294 6.16589 15.5511 5.27378 13.0694L1.77718 15.7634C3.55175 19.2359 7.15558 21.6184 11.3229 21.6184Z" fill="#4CAF50"/>
<path d="M21.8368 8.79593H20.9731V8.75143H11.3229V13.0404H17.3827C16.9598 14.2287 16.1981 15.2671 15.1916 16.0272L15.1932 16.0261L18.5118 18.8343C18.277 19.0477 22.0454 16.2572 22.0454 10.8959C22.0454 10.177 21.9714 9.4752 21.8368 8.79593Z" fill="#1976D2"/>
</svg>
