<svg width="25" height="30" viewBox="0 0 25 30" fill="none" xmlns="http://www.w3.org/2000/svg">
<circle cx="14.0634" cy="7.2378" r="6.01454" stroke="#6B6B6B" stroke-width="2"/>
<path d="M1.45996 29.5306C1.45996 27.794 1.77073 26.0744 2.37451 24.47C2.9783 22.8657 3.86329 21.4079 4.97894 20.18C6.0946 18.952 7.41907 17.978 8.87675 17.3134C10.3344 16.6489 11.8967 16.3068 13.4745 16.3068H14.8702" stroke="#6B6B6B" stroke-width="2"/>
<path fill-rule="evenodd" clip-rule="evenodd" d="M19.2904 23.0401V13.8491H24.5175V17.3338H21.0328V26.0457C21.0328 27.9711 19.4733 29.5305 17.548 29.5305C15.6227 29.5305 14.0632 27.9711 14.0632 26.0457C14.0632 24.1204 15.6227 22.561 17.548 22.561C18.184 22.561 18.7764 22.7439 19.2904 23.0401ZM17.6122 27.5983C18.4531 27.5983 19.1347 26.9166 19.1347 26.0757C19.1347 25.2348 18.4531 24.5531 17.6122 24.5531C16.7712 24.5531 16.0896 25.2348 16.0896 26.0757C16.0896 26.9166 16.7712 27.5983 17.6122 27.5983Z" fill="#6B6B6B"/>
</svg>
